<svg width="25" height="25" viewBox="0 0 25 25" fill="none" xmlns="http://www.w3.org/2000/svg">
<path d="M12.5 0C9.0625 0 6.25 2.8125 6.25 6.25C6.25 9.5 4.625 12.4375 2.0625 14.5625C0.78125 15.625 0 17.125 0 18.75H25C25 17.125 24.25 15.625 22.9375 14.5625C20.375 12.4375 18.75 9.5 18.75 6.25C18.75 2.8125 15.9688 0 12.5 0ZM9.375 21.875C9.375 23.5938 10.7812 25 12.5 25C14.2188 25 15.625 23.5938 15.625 21.875H9.375Z" fill="url(#paint0_linear_7_254)"/>
<defs>
<linearGradient id="paint0_linear_7_254" x1="12.5" y1="0" x2="12" y2="40" gradientUnits="userSpaceOnUse">
<stop stop-color="#FC2861"/>
<stop offset="1" stop-color="#1D2341"/>
</linearGradient>
</defs>
</svg>
