<svg width="80" height="80" viewBox="50 -20 80 80" fill="none" xmlns="http://www.w3.org/2000/svg">
<path d="M88.0591 13.9653V37.1723L104.727 41.6565V7.72656L88.0591 13.9653ZM102.011 26.7604C101.598 26.7604 101.267 26.1657 101.267 25.4302C101.267 24.6947 101.599 24.0979 102.011 24.0979C102.424 24.0979 102.756 24.6947 102.756 25.4302C102.756 26.1657 102.422 26.7604 102.011 26.7604Z" fill="#0E395B"/>
<path d="M100.257 8.42963L95.6119 10.1976L87.0543 5.87245L87.07 39.8406L90.6541 38.7671L96.3946 40.371L82.5713 45.1282L82.5741 0L100.257 8.42963Z" fill="url(#paint0_linear_0_1)"/>
<path d="M75.5835 3.21875L81.659 6.08284L81.6248 9.4752L79.5725 8.42079L79.5675 38.4153L81.6283 37.7767L81.6319 40.9816L75.5835 43.0593V3.21875Z" fill="#0E395B"/>
<defs>
<linearGradient id="paint0_linear_0_1" x1="91.4233" y1="4.13561" x2="87.6735" y2="43.2422" gradientUnits="userSpaceOnUse">
<stop stop-color="#EC1C24"/>
<stop offset="1" stop-color="#AC1015"/>
</linearGradient>
</defs>
</svg>
