<svg xmlns="http://www.w3.org/2000/svg" viewBox="0 0 800 400" style="width:300px;height:auto;">
        <rect width="800" height="133.33" y="0" fill="darkred"/>
        <rect width="800" height="133.33" y="133.33" fill="#FFF"/>
        <rect width="800" height="133.33" y="266.66" fill="black"/>
        <path d="M160,200a8,8,0,0,1,8-8h44.58a8,8,0,0,1,0,16H168A8,8,0,0,1,160,200Zm0-24a8,8,0,0,1,8-8H400a8,8,0,0,1,0,16H168A8,8,0,0,1,160,176Zm0,48a8,8,0,0,1,8-8h96a8,8,0,0,1,0,16H168A8,8,0,0,1,160,224Z" fill="#FFF"/>
        <text x="400" y="233.33" font-family="Arial" font-size="100"  fill="green" text-anchor="middle">الله أكبر</text>
    </svg>