<svg width="101" height="25" viewBox="0 0 101 25" fill="none" xmlns="http://www.w3.org/2000/svg">
<g clip-path="url(#clip0_7_242)">
<path d="M0 19.1177V1.98089C0 1.56727 0.164314 1.17058 0.456787 0.878102C0.749261 0.585628 1.14594 0.421326 1.55956 0.421326H13.4537V2.25956C13.4537 2.46437 13.4133 2.66717 13.335 2.85638C13.2566 3.0456 13.1417 3.21753 12.9969 3.36235C12.8521 3.50716 12.6801 3.62202 12.4909 3.7004C12.3017 3.77877 12.0989 3.81912 11.8941 3.81912H3.53088V8.92795H10.8537V10.6302C10.8536 10.8351 10.8131 11.0379 10.7346 11.2272C10.6561 11.4165 10.5411 11.5884 10.3961 11.7332C10.2512 11.878 10.0791 11.9929 9.8898 12.0712C9.70046 12.1495 9.49755 12.1898 9.29265 12.1897H3.53088V19.1177H0Z" fill="#FC2861"/>
<path d="M24.0389 5.93164H27.1691V19.1214H24.0933L23.9323 17.1956C23.183 18.7471 21.1235 19.4964 19.6529 19.5228C15.7485 19.55 12.8588 17.1419 12.8588 12.5147C12.8588 7.96767 15.8816 5.5868 19.733 5.61327C20.5574 5.5826 21.3759 5.76313 22.1108 6.13775C22.8458 6.51237 23.4728 7.06862 23.9323 7.7537L24.0389 5.93164ZM16.122 12.5118C16.0889 13.0382 16.1664 13.5657 16.3496 14.0604C16.5327 14.555 16.8174 15.0058 17.1854 15.3837C17.5533 15.7617 17.9964 16.0583 18.4859 16.2547C18.9755 16.451 19.5008 16.5426 20.0279 16.5236C25.1632 16.5236 25.1632 8.52649 20.0279 8.52649C19.5022 8.50424 18.9777 8.59274 18.4884 8.78623C17.9992 8.97971 17.556 9.27386 17.1877 9.64963C16.8195 10.0254 16.5343 10.4744 16.3507 10.9674C16.1671 11.4605 16.0892 11.9867 16.122 12.5118Z" fill="#FC2861"/>
<path d="M38.5367 9.43383C38.0993 9.0292 37.585 8.71658 37.0245 8.51448C36.4639 8.31239 35.8685 8.22496 35.2735 8.25737C33.722 8.25737 32.8654 8.73897 32.8654 9.56691C32.8654 10.4221 33.6411 10.9044 35.3272 11.0118C37.8132 11.1721 40.9705 11.7338 40.9705 15.2375C40.9705 17.5647 39.072 19.5706 35.3007 19.5706C33.2139 19.5706 31.1271 19.2228 29.2021 17.2176L30.8066 14.8912C32.0617 16.0169 33.6704 16.6694 35.3551 16.736C36.5845 16.7632 37.7352 16.1206 37.7352 15.1574C37.7352 14.2485 36.986 13.8735 35.1132 13.7669C32.6257 13.5787 29.6566 12.6699 29.6566 9.67426C29.6566 6.625 32.8132 5.55663 35.2205 5.55663C36.1487 5.4945 37.08 5.61598 37.9612 5.91412C38.8423 6.21226 39.6561 6.68119 40.3558 7.29412L38.5367 9.43383Z" fill="#FC2861"/>
<path d="M47.6581 2.21252V5.95737H51.2956V7.40664C51.2957 7.58521 51.2606 7.76204 51.1923 7.92703C51.124 8.09202 51.0239 8.24195 50.8976 8.36821C50.7714 8.49448 50.6214 8.59462 50.4564 8.66291C50.2914 8.7312 50.1146 8.76629 49.936 8.7662H47.6338V14.4655C47.5985 14.7057 47.6171 14.9508 47.6883 15.183C47.7595 15.4152 47.8814 15.6286 48.0453 15.8079C48.2092 15.9871 48.4109 16.1276 48.6358 16.2192C48.8607 16.3108 49.1031 16.3512 49.3456 16.3375C49.8945 16.322 50.4331 16.1851 50.9228 15.9368L51.8331 18.7184C50.9765 19.0757 50.0597 19.2664 49.1316 19.2802C46.2691 19.3868 44.3971 17.7552 44.3971 14.4655V8.76766H41.9353V5.95885H44.3971V2.56251L47.6581 2.21252Z" fill="#FC2861"/>
<path d="M62.797 13.6074H58.5323V19.1169H55.0029V1.94855C55.0045 1.53503 55.1696 1.13892 55.4622 0.846714C55.7548 0.554512 56.1512 0.389963 56.5647 0.388995C58.697 0.383113 60.4066 0.365479 62.797 0.365479C71.9441 0.367684 71.9713 13.6074 62.797 13.6074ZM58.5323 10.3721H62.797C67.3176 10.3721 67.2904 3.73899 62.797 3.73899H58.5323V10.3721Z" fill="#1D2341"/>
<path d="M81.7059 5.93162H84.836V19.1213H81.7596L81.5993 17.1956C80.8507 18.7471 78.7905 19.4963 77.3199 19.5228C73.414 19.55 70.525 17.1419 70.525 12.5147C70.525 7.96766 73.5486 5.58678 77.3993 5.61325C78.2237 5.58266 79.0423 5.76324 79.7773 6.13784C80.5124 6.51245 81.1395 7.06864 81.5993 7.75368L81.7059 5.93162ZM73.789 12.5118C73.7559 13.0381 73.8334 13.5655 74.0165 14.06C74.1995 14.5545 74.4841 15.0053 74.8519 15.3832C75.2197 15.7611 75.6625 16.0578 76.1519 16.2542C76.6413 16.4506 77.1664 16.5423 77.6934 16.5235C82.8294 16.5235 82.8294 8.52647 77.6934 8.52647C77.1678 8.50443 76.6435 8.59308 76.1544 8.78666C75.6653 8.98024 75.2224 9.27445 74.8542 9.65019C74.4861 10.0259 74.2011 10.4748 74.0176 10.9678C73.834 11.4608 73.7562 11.9868 73.789 12.5118Z" fill="#1D2341"/>
<path d="M91.8066 12.0912L89.6742 5.93536H85.8831L90.1367 16.3324L91.8066 12.0912Z" fill="#1D2341"/>
<path d="M100.323 5.93536L92.2757 24.6324H88.6912L90.2404 21.017L90.2919 20.8927L92.8434 15.0567L94.3 11.7096L96.7066 5.93536H100.323Z" fill="#1D2341"/>
</g>
<defs>
<clipPath id="clip0_7_242">
<rect width="100.735" height="25" fill="white"/>
</clipPath>
</defs>
</svg>
