<svg width="56" height="56" viewBox="0 0 56 56" fill="none" xmlns="http://www.w3.org/2000/svg">
<path d="M8.38301 21.402C9.60201 21.402 10.258 20.722 10.258 19.48V13.95C10.258 11.512 11.57 10.27 13.914 10.27H19.586C20.805 10.27 21.484 9.58997 21.484 8.37097C21.484 7.17597 20.804 6.49597 19.586 6.49597H13.844C8.96901 6.49597 6.48401 8.90997 6.48401 13.738V19.481C6.48401 20.723 7.16401 21.402 8.38301 21.402ZM47.617 21.402C48.859 21.402 49.516 20.722 49.516 19.48V13.738C49.516 8.90997 47.078 6.49597 42.156 6.49597H36.437C35.195 6.49597 34.516 7.17597 34.516 8.37097C34.516 9.58997 35.196 10.27 36.437 10.27H42.109C44.406 10.27 45.742 11.512 45.742 13.95V19.48C45.742 20.723 46.422 21.402 47.617 21.402ZM26.992 25.972V17.793C26.992 17.231 26.547 16.762 25.961 16.762H17.805C17.219 16.762 16.773 17.23 16.773 17.793V25.973C16.773 26.535 17.219 26.981 17.805 26.981H25.961C26.547 26.981 26.992 26.534 26.992 25.972ZM31.047 18.802H37.187V24.942H31.047V18.802ZM35.407 23.162V20.606H32.852V23.161L35.407 23.162ZM23.172 23.162V20.606H20.594V23.161L23.172 23.162ZM18.812 31.06H24.953V37.2H18.813L18.812 31.06ZM38.922 31.856V29.302H36.367V31.857L38.922 31.856ZM31.867 31.856V29.302H29.312V31.857L31.867 31.856ZM23.172 35.396V32.84H20.594V35.394L23.172 35.396ZM35.406 35.396V32.84H32.828V35.394L35.406 35.396ZM36.437 49.505H42.157C47.078 49.505 49.516 47.067 49.516 42.239V36.52C49.516 35.277 48.836 34.598 47.617 34.598C46.398 34.598 45.742 35.278 45.742 36.52V42.05C45.742 44.488 44.406 45.73 42.109 45.73H36.437C35.195 45.73 34.516 46.41 34.516 47.629C34.516 48.824 35.196 49.505 36.437 49.505ZM13.844 49.504H19.586C20.805 49.504 21.484 48.824 21.484 47.629C21.484 46.41 20.804 45.731 19.586 45.731H13.914C11.57 45.731 10.258 44.488 10.258 42.051V36.52C10.258 35.277 9.57801 34.598 8.38301 34.598C7.14101 34.598 6.48401 35.278 6.48401 36.52V42.238C6.48401 47.09 8.96901 49.504 13.844 49.504ZM31.867 38.934V36.379H29.312V38.934H31.867ZM38.922 38.934V36.379H36.367V38.934H38.922ZM39.227 25.973V17.793C39.227 17.231 38.781 16.762 38.195 16.762H30.04C29.454 16.762 29.009 17.23 29.009 17.793V25.973C29.009 26.535 29.454 26.981 30.039 26.981H38.196C38.782 26.981 39.227 26.535 39.227 25.973ZM18.812 18.8H24.953V24.94H18.813L18.812 18.8ZM26.992 38.206V30.026C26.992 29.464 26.547 29.019 25.961 29.019H17.805C17.219 29.019 16.773 29.464 16.773 30.026V38.206C16.773 38.769 17.219 39.237 17.805 39.237H25.961C26.547 39.237 26.992 38.769 26.992 38.206Z" fill="#AE0755"/>
</svg>
